<svg width="24" height="24" viewBox="0 0 24 24" fill="none" xmlns="http://www.w3.org/2000/svg">
<path fill-rule="evenodd" clip-rule="evenodd" d="M8 11C8 8.79091 9.79086 7.00005 12 7.00005C14.2091 7.00005 16 8.79091 16 11C16 13.2092 14.2091 15 12 15C9.79086 15 8 13.2092 8 11ZM12 9.00005C10.8954 9.00005 10 9.89548 10 11C10 12.1046 10.8954 13 12 13C13.1046 13 14 12.1046 14 11C14 9.89548 13.1046 9.00005 12 9.00005Z" fill="white"/>
<path fill-rule="evenodd" clip-rule="evenodd" d="M11.5477 2.27697C11.842 2.18388 12.158 2.18388 12.4523 2.27697C12.6894 2.35197 12.8612 2.47919 12.9743 2.57495C13.0718 2.65751 13.174 2.7598 13.2596 2.84547L14.4142 4.00005L17.8192 4.00005C18.3552 4.00003 18.8176 4.00001 19.1983 4.03162C19.6002 4.065 19.9997 4.13872 20.3829 4.33781C20.9309 4.62243 21.3776 5.06919 21.6622 5.61712C21.8613 6.00039 21.935 6.39986 21.9684 6.80175C22 7.1824 22 7.6448 22 8.1808V17.8192C22 18.3552 22 18.8177 21.9684 19.1983C21.935 19.6002 21.8613 19.9997 21.6622 20.383C21.3776 20.9309 20.9309 21.3777 20.3829 21.6623C19.9997 21.8614 19.6002 21.9351 19.1983 21.9685C18.8176 22.0001 18.3553 22.0001 17.8193 22H6.18083C5.64482 22.0001 5.18236 22.0001 4.8017 21.9685C4.39982 21.9351 4.00035 21.8614 3.61708 21.6623C3.06915 21.3777 2.62239 20.9309 2.33776 20.383C2.13867 19.9997 2.06495 19.6002 2.03158 19.1983C1.99997 18.8177 1.99998 18.3553 2 17.8193V8.18084C1.99998 7.64482 1.99997 7.18241 2.03158 6.80175C2.06495 6.39986 2.13867 6.00039 2.33776 5.61712C2.62239 5.06919 3.06915 4.62243 3.61708 4.33781C4.00035 4.13872 4.39982 4.065 4.8017 4.03162C5.18237 4.00001 5.64478 4.00003 6.1808 4.00005L9.58579 4.00005L10.7403 2.84551C10.8259 2.75984 10.9282 2.65753 11.0257 2.57495C11.1388 2.47919 11.3106 2.35197 11.5477 2.27697ZM12 4.41426L10.4142 6.00005H6.22C5.63373 6.00005 5.25517 6.00085 4.96722 6.02476C4.69125 6.04768 4.58924 6.08655 4.53903 6.11263C4.35638 6.20751 4.20746 6.35643 4.11259 6.53907C4.08651 6.58928 4.04764 6.69129 4.02472 6.96727C4.00081 7.25521 4 7.63377 4 8.22005V17.78C4 18.3663 4.00081 18.7449 4.02472 19.0328C4.04764 19.3088 4.08651 19.4108 4.11259 19.461C4.20746 19.6437 4.35638 19.7926 4.53903 19.8875C4.58924 19.9135 4.69125 19.9524 4.96722 19.9753C5.00705 19.9786 5.04861 19.9815 5.09221 19.984C5.53633 17.7133 7.53186 16.0001 9.92641 16.0001H14.0736C16.4681 16.0001 18.4637 17.7133 18.9078 19.984C18.9514 19.9815 18.993 19.9786 19.0328 19.9753C19.3088 19.9524 19.4108 19.9135 19.461 19.8875C19.6436 19.7926 19.7925 19.6437 19.8874 19.461C19.9135 19.4108 19.9524 19.3088 19.9753 19.0328C19.9992 18.7449 20 18.3663 20 17.78V8.22005C20 7.63377 19.9992 7.25521 19.9753 6.96727C19.9524 6.69129 19.9135 6.58928 19.8874 6.53907C19.7925 6.35643 19.6436 6.20751 19.461 6.11263C19.4108 6.08655 19.3088 6.04768 19.0328 6.02476C18.7448 6.00085 18.3663 6.00005 17.78 6.00005H13.5858L12 4.41426ZM16.8777 20C16.4857 18.8239 15.3784 17.9761 14.0736 17.9761H9.92641C8.62164 17.9761 7.51433 18.8239 7.12234 20H16.8777Z" fill="white"/>
</svg>
